<svg width="24" height="24" viewBox="0 0 24 24" fill="none" xmlns="http://www.w3.org/2000/svg">
<g clip-path="url(#clip0)">
<path d="M22.0587 16.878L22.044 16.8782L21.9329 8.63474C21.9349 8.55971 21.9244 7.63751 21.9234 7.55977C21.9164 7.07078 21.7169 6.60427 21.3681 6.2615C21.0193 5.91873 20.5493 5.72737 20.0603 5.72896L19.3184 5.73896C19.0909 4.69078 18.508 3.75348 17.6685 3.08586C16.829 2.41825 15.7846 2.06137 14.7121 2.07569L6.64995 2.21207C5.41689 2.22869 4.24093 2.73442 3.38073 3.61803C2.52053 4.50163 2.04654 5.69074 2.06302 6.9238L2.21094 17.4563C2.21917 18.0669 2.34758 18.6698 2.58885 19.2308C2.83011 19.7918 3.1795 20.2997 3.61707 20.7257C4.05465 21.1516 4.57183 21.4872 5.13909 21.7132C5.70635 21.9393 6.31258 22.0514 6.92317 22.0432L17.4766 21.8732C18.0872 21.865 18.6902 21.7366 19.2511 21.4953C19.8121 21.2541 20.3201 20.9047 20.746 20.4671C21.1719 20.0295 21.5075 19.5124 21.7336 18.9451C21.9596 18.3778 22.0718 17.7716 22.0635 17.161L22.0587 16.878ZM20.7936 16.8951C20.7371 17.9007 20.3018 18.8475 19.5753 19.545C18.8487 20.2425 17.8849 20.6388 16.8779 20.6542L7.46805 20.806C6.40881 20.8203 5.38726 20.4132 4.6281 19.6744C3.86894 18.9355 3.43432 17.9254 3.41985 16.8662L3.29347 7.48703C3.2863 6.9624 3.38255 6.4415 3.5767 5.95408C3.77086 5.46665 4.05913 5.02224 4.42505 4.64623C4.79097 4.27022 5.22738 3.96997 5.70934 3.76263C6.19131 3.55529 6.7094 3.44492 7.23402 3.43782L14.1531 3.31958C14.6776 3.31245 15.1983 3.4087 15.6856 3.60283C16.173 3.79697 16.6172 4.08519 16.9932 4.45104C17.3691 4.81689 17.6692 5.2532 17.8765 5.73506C18.0838 6.21692 18.1942 6.73489 18.2013 7.25939L18.3234 16.3251C18.3318 16.4812 18.3971 16.6289 18.507 16.7401C18.5661 16.7986 18.6364 16.8445 18.7138 16.8751C18.7911 16.9056 18.8737 16.9203 18.9568 16.918C19.0399 16.9158 19.1217 16.8968 19.1973 16.8622C19.2729 16.8275 19.3406 16.7779 19.3965 16.7164C19.4877 16.6059 19.5441 16.4709 19.5586 16.3284L19.4276 6.97685L20.0775 6.96809L20.0776 6.97709C20.2359 6.9795 20.387 7.04343 20.4989 7.15533C20.6108 7.26723 20.6748 7.41831 20.6773 7.57656L20.8028 16.895L20.7936 16.8951Z" fill="#FF5722"/>
</g>
<defs>
<clipPath id="clip0">
<rect width="20" height="20" fill="white" transform="translate(2 2)"/>
</clipPath>
</defs>
</svg>
