<svg width="24" height="24" viewBox="0 0 24 24" fill="none" xmlns="http://www.w3.org/2000/svg">
<path d="M14.9167 14.9167L17.8333 17.8334" stroke="#BBBBBB" stroke-width="1.5" stroke-linecap="round" stroke-linejoin="round"/>
<path d="M6.16666 11.1667C6.16666 11.8233 6.29599 12.4735 6.54727 13.0801C6.79854 13.6867 7.16684 14.2379 7.63113 14.7022C8.09542 15.1665 8.64662 15.5348 9.25325 15.7861C9.85987 16.0373 10.5101 16.1667 11.1667 16.1667C11.8233 16.1667 12.4735 16.0373 13.0801 15.7861C13.6867 15.5348 14.2379 15.1665 14.7022 14.7022C15.1665 14.2379 15.5348 13.6867 15.7861 13.0801C16.0373 12.4735 16.1667 11.8233 16.1667 11.1667C16.1667 9.84059 15.6399 8.56882 14.7022 7.63114C13.7645 6.69346 12.4927 6.16667 11.1667 6.16667C9.84058 6.16667 8.56881 6.69346 7.63113 7.63114C6.69345 8.56882 6.16666 9.84059 6.16666 11.1667V11.1667Z" stroke="#BBBBBB" stroke-width="1.5" stroke-linecap="round" stroke-linejoin="round"/>
</svg>
