<svg width="24" height="24" viewBox="0 0 24 24" fill="none" xmlns="http://www.w3.org/2000/svg">
<path d="M15.6364 5.33333H21.0909C21.332 5.33333 21.5632 5.42113 21.7337 5.57741C21.9042 5.73369 22 5.94565 22 6.16667C22 6.38768 21.9042 6.59964 21.7337 6.75592C21.5632 6.9122 21.332 7 21.0909 7H20.0855L18.7182 18.2933C18.5947 19.3126 18.0655 20.2542 17.2318 20.9381C16.3982 21.622 15.3187 22.0001 14.2 22H9.8C8.68127 22.0001 7.60179 21.622 6.76816 20.9381C5.93454 20.2542 5.40533 19.3126 5.28182 18.2933L3.91273 7H2.90909C2.66799 7 2.43675 6.9122 2.26627 6.75592C2.09578 6.59964 2 6.38768 2 6.16667C2 5.94565 2.09578 5.73369 2.26627 5.57741C2.43675 5.42113 2.66799 5.33333 2.90909 5.33333H8.36364C8.36364 4.44928 8.74675 3.60143 9.4287 2.97631C10.1107 2.35119 11.0356 2 12 2C12.9644 2 13.8893 2.35119 14.5713 2.97631C15.2532 3.60143 15.6364 4.44928 15.6364 5.33333V5.33333ZM12 3.66667C11.5178 3.66667 11.0553 3.84226 10.7144 4.15482C10.3734 4.46738 10.1818 4.89131 10.1818 5.33333H13.8182C13.8182 4.89131 13.6266 4.46738 13.2856 4.15482C12.9447 3.84226 12.4822 3.66667 12 3.66667V3.66667ZM5.74364 7L7.08909 18.11C7.16336 18.7214 7.48096 19.2863 7.98112 19.6965C8.48128 20.1067 9.12888 20.3334 9.8 20.3333H14.2C14.8708 20.333 15.518 20.1061 16.0177 19.6959C16.5175 19.2857 16.8349 18.7211 16.9091 18.11L18.2582 7H5.74545H5.74364Z" fill="#BBBBBB"/>
</svg>
