<svg width="24" height="24" viewBox="0 0 24 24" fill="none" xmlns="http://www.w3.org/2000/svg">
<path d="M21.3581 15.3435L20.6434 15.3407L20.6727 6.93771C20.6757 5.64815 20.1983 4.40997 19.3453 3.49475C18.4923 2.57953 17.3333 2.06199 16.1226 2.05564L7.89818 2.02308C6.68744 2.01991 5.52493 2.52828 4.66563 3.43672C3.80632 4.34515 3.32037 5.57948 3.31435 6.86898L3.28502 15.272L2.61885 15.2693C2.46088 15.2687 2.30915 15.335 2.19703 15.4535C2.08492 15.572 2.0216 15.7331 2.02101 15.9014C2.02042 16.0696 2.08261 16.2312 2.1939 16.3506C2.30519 16.47 2.45645 16.5375 2.61442 16.5381L9.53925 16.5655L5.4925 20.8426C5.43499 20.9007 5.38897 20.9705 5.35714 21.0479C5.32531 21.1252 5.30831 21.2086 5.30713 21.293C5.30596 21.3775 5.32064 21.4613 5.3503 21.5396C5.37997 21.618 5.42402 21.6892 5.47989 21.7491C5.53575 21.8091 5.60229 21.8565 5.67561 21.8887C5.74893 21.9209 5.82754 21.9371 5.90684 21.9365C5.98613 21.9359 6.06451 21.9184 6.13737 21.8851C6.21024 21.8518 6.27612 21.8033 6.33114 21.7425L11.2221 16.5722L12.8025 16.5784L17.6605 21.7905C17.7717 21.9097 17.9228 21.977 18.0806 21.9776C18.2384 21.9781 18.3899 21.9119 18.5019 21.7934C18.6138 21.675 18.677 21.514 18.6775 21.346C18.678 21.1779 18.6158 21.0165 18.5046 20.8973L14.4853 16.5851L21.3536 16.6123C21.5116 16.6129 21.6633 16.5467 21.7755 16.4282C21.8876 16.3096 21.9509 16.1485 21.9515 15.9803C21.9521 15.812 21.8899 15.6504 21.7786 15.531C21.6673 15.4116 21.516 15.3442 21.3581 15.3435ZM4.47651 15.2767L4.50584 6.8737C4.5101 5.92054 4.86919 5.0081 5.50434 4.33659C6.13949 3.66508 6.99881 3.28934 7.89375 3.29183L16.1181 3.32439C17.0133 3.32871 17.8703 3.71105 18.501 4.38753C19.1318 5.064 19.4848 5.97935 19.4827 6.93273L19.4534 15.336L4.47651 15.2767Z" fill="#FED918"/>
</svg>
