<svg width="24" height="24" viewBox="0 0 24 24" fill="none" xmlns="http://www.w3.org/2000/svg">
<g clip-path="url(#clip0)">
<path d="M20.1302 13.6055L20.1562 6.61804C20.1596 5.39231 19.6765 4.21532 18.813 3.34538C17.9495 2.47544 16.7761 1.98363 15.5504 1.97788L7.22547 1.94693C5.99981 1.94363 4.82291 2.42675 3.95307 3.29024C3.08322 4.15374 2.5915 5.32707 2.58582 6.55272L2.54566 17.3561C2.54229 18.5817 3.02521 19.7586 3.88848 20.6286C4.75174 21.4986 5.92485 21.9907 7.15044 21.9968L10.7352 22.0101C10.8053 22.0219 10.876 22.0292 10.9471 22.0319L16.7743 22.0536C18 22.0567 19.177 21.5735 20.0469 20.71C20.9168 19.8464 21.4086 18.673 21.4144 17.4473L21.4168 16.808C21.4199 15.614 20.9585 14.4656 20.1302 13.6055ZM6.34493 16.752L6.33035 20.6745C5.59268 20.4884 4.93828 20.0613 4.47095 19.4609C4.00362 18.8606 3.75011 18.1214 3.75065 17.3606L3.79081 6.5572C3.7951 5.65125 4.15863 4.784 4.80162 4.14578C5.44461 3.50755 6.31453 3.15048 7.22049 3.15292L15.5454 3.18387C16.4516 3.18803 17.319 3.55147 17.9575 4.19445C18.596 4.83742 18.9534 5.70742 18.9512 6.61356L18.9285 12.7155C18.2774 12.3644 17.5507 12.1768 16.811 12.1689L10.9841 12.1472C9.75868 12.1441 8.58206 12.6271 7.71235 13.4904C6.84264 14.3536 6.35087 15.5266 6.34493 16.752ZM20.2095 17.4428C20.2049 18.3489 19.8411 19.2161 19.198 19.8543C18.5548 20.4925 17.6848 20.8495 16.7788 20.8471L16.2863 20.8453L16.2864 20.8243L10.7396 20.8036C10.6874 20.7964 10.6342 20.7922 10.581 20.787L10.5809 20.803L7.53492 20.7917L7.54992 16.7565C7.55428 15.8506 7.91784 14.9834 8.56082 14.3452C9.2038 13.7071 10.0737 13.35 10.9796 13.3525L16.8066 13.3741C17.7126 13.3784 18.5799 13.7419 19.2182 14.3848C19.8566 15.0277 20.2139 15.8976 20.2118 16.8036L20.2095 17.4428Z" fill="#FED918"/>
</g>
<defs>
<clipPath id="clip0">
<rect width="20" height="20" fill="white" transform="translate(2 2)"/>
</clipPath>
</defs>
</svg>
