<svg width="24" height="24" viewBox="0 0 24 24" fill="none" xmlns="http://www.w3.org/2000/svg">
<path d="M20.75 20.75H19.5V17.625C19.499 16.7965 19.1694 16.0022 18.5836 15.4164C17.9978 14.8306 17.2035 14.501 16.375 14.5V13.25C17.5349 13.2513 18.6469 13.7127 19.4671 14.5329C20.2873 15.3531 20.7487 16.4651 20.75 17.625V20.75Z" fill="#BBBBBB"/>
<path d="M15.75 20.75H14.5V17.625C14.499 16.7965 14.1694 16.0022 13.5836 15.4164C12.9978 14.8306 12.2035 14.501 11.375 14.5H7.625C6.7965 14.501 6.00222 14.8306 5.41639 15.4164C4.83055 16.0022 4.50099 16.7965 4.5 17.625V20.75H3.25V17.625C3.25132 16.4651 3.71268 15.3531 4.53287 14.5329C5.35305 13.7127 6.46508 13.2513 7.625 13.25H11.375C12.5349 13.2513 13.6469 13.7127 14.4671 14.5329C15.2873 15.3531 15.7487 16.4651 15.75 17.625V20.75Z" fill="#BBBBBB"/>
<path d="M14.5 3.25V4.5C15.3288 4.5 16.1237 4.82924 16.7097 5.41529C17.2958 6.00134 17.625 6.7962 17.625 7.625C17.625 8.4538 17.2958 9.24866 16.7097 9.83471C16.1237 10.4208 15.3288 10.75 14.5 10.75V12C15.6603 12 16.7731 11.5391 17.5936 10.7186C18.4141 9.89812 18.875 8.78532 18.875 7.625C18.875 6.46468 18.4141 5.35188 17.5936 4.53141C16.7731 3.71094 15.6603 3.25 14.5 3.25V3.25Z" fill="#BBBBBB"/>
<path d="M9.5 4.5C10.1181 4.5 10.7223 4.68328 11.2362 5.02666C11.7501 5.37004 12.1506 5.8581 12.3871 6.42911C12.6236 7.00013 12.6855 7.62847 12.565 8.23466C12.4444 8.84085 12.1467 9.39767 11.7097 9.83471C11.2727 10.2717 10.7158 10.5694 10.1097 10.69C9.50347 10.8105 8.87514 10.7486 8.30412 10.5121C7.7331 10.2756 7.24504 9.87506 6.90166 9.36116C6.55828 8.84725 6.375 8.24307 6.375 7.625C6.375 6.7962 6.70424 6.00134 7.29029 5.41529C7.87634 4.82924 8.6712 4.5 9.5 4.5V4.5ZM9.5 3.25C8.63471 3.25 7.78885 3.50659 7.06938 3.98732C6.34992 4.46805 5.78916 5.15133 5.45803 5.95076C5.1269 6.75019 5.04026 7.62985 5.20907 8.47852C5.37788 9.32719 5.79456 10.1067 6.40641 10.7186C7.01826 11.3304 7.79782 11.7471 8.64648 11.9159C9.49515 12.0847 10.3748 11.9981 11.1742 11.667C11.9737 11.3358 12.657 10.7751 13.1377 10.0556C13.6184 9.33615 13.875 8.49029 13.875 7.625C13.875 6.46468 13.4141 5.35188 12.5936 4.53141C11.7731 3.71094 10.6603 3.25 9.5 3.25V3.25Z" fill="#BBBBBB"/>
</svg>
