<svg width="24" height="24" viewBox="0 0 24 24" fill="none" xmlns="http://www.w3.org/2000/svg">
<path d="M21.999 14.5596L21.993 10.4706C21.9929 9.22956 21.4998 8.03941 20.6223 7.1619C19.7447 6.28439 18.5545 5.79138 17.3135 5.79132H16.999C16.988 5.45583 16.976 4.99135 16.976 4.47813C16.9753 3.82111 16.714 3.19121 16.2494 2.72663C15.7848 2.26205 15.1549 2.00073 14.4979 2H9.55188C9.22359 2.00146 8.89884 2.06785 8.59631 2.19533C8.29378 2.32281 8.01945 2.50887 7.78912 2.7428C7.55879 2.97673 7.37701 3.25392 7.25423 3.55839C7.13146 3.86286 7.07012 4.1886 7.07375 4.51688C7.07375 5.0136 7.06575 5.45983 7.05775 5.79182H6.67952C6.06504 5.79175 5.45657 5.91272 4.88884 6.14782C4.32112 6.38291 3.80526 6.72754 3.37072 7.162C2.93618 7.59647 2.59148 8.11227 2.35629 8.67996C2.1211 9.24765 2.00003 9.85611 2 10.4706L2.004 13.2275H2L2.006 17.3165C2.00613 18.5575 2.4992 19.7477 3.37676 20.6252C4.25432 21.5027 5.4445 21.9957 6.68552 21.9958H17.3195C17.934 21.9958 18.5425 21.8749 19.1103 21.6397C19.6781 21.4046 20.1939 21.0599 20.6285 20.6254C21.063 20.1909 21.4077 19.675 21.6429 19.1073C21.878 18.5395 21.9991 17.931 21.999 17.3165L21.995 14.5596H21.999ZM8.26744 4.47813C8.26797 4.13773 8.4035 3.81144 8.64429 3.57083C8.88509 3.33023 9.21148 3.19496 9.55188 3.19469H14.4979C14.8385 3.19469 15.1651 3.32985 15.4061 3.57048C15.6471 3.81111 15.7828 4.13756 15.7833 4.47813C15.7833 4.97185 15.7933 5.42483 15.8043 5.76557L9.89436 5.79056H8.25145C8.26044 5.44883 8.26744 4.99185 8.26744 4.47813ZM20.7386 16.745C20.7385 17.8113 20.3149 18.8338 19.561 19.5877C18.8071 20.3417 17.7845 20.7653 16.7183 20.7653H7.26874C6.20251 20.7653 5.17997 20.3417 4.42603 19.5877C3.67209 18.8338 3.24851 17.8113 3.24844 16.745L3.24444 14.5596H3.26544L3.26044 11.0421C3.26041 10.5141 3.36437 9.99132 3.5664 9.50355C3.76843 9.01579 4.06457 8.57259 4.4379 8.19929C4.81123 7.82598 5.25444 7.52988 5.74222 7.32787C6.23 7.12587 6.75279 7.02194 7.28074 7.022H16.7303C17.7965 7.02207 18.8191 7.44566 19.573 8.1996C20.3269 8.95354 20.7505 9.97608 20.7506 11.0423L20.7546 13.2277H20.7331L20.7386 16.745Z" fill="#FED918"/>
</svg>
