<svg width="24" height="24" viewBox="0 0 24 24" fill="none" xmlns="http://www.w3.org/2000/svg">
<g clip-path="url(#clip0)">
<path d="M7.96726 6.91492L10.986 3.96487C11.3554 3.60423 11.8526 3.40477 12.3688 3.4102C12.885 3.41563 13.378 3.62553 13.7397 3.99386L16.2103 6.51681L17.4728 6.05025L14.576 3.09621C13.9936 2.50492 13.2008 2.16827 12.3708 2.15984C11.5409 2.15142 10.7414 2.47191 10.1471 3.05124L7.03983 6.08796L7.96726 6.91492Z" fill="#FED918"/>
<path d="M17.4559 5.87001L6.98776 5.83109C6.90105 5.83077 6.8305 5.9008 6.83017 5.9875L6.82671 6.91975C6.82639 7.00646 6.89641 7.07701 6.98312 7.07733L17.4513 7.11625C17.538 7.11657 17.6086 7.04654 17.6089 6.95983L17.6123 6.02759C17.6127 5.94088 17.5426 5.87033 17.4559 5.87001Z" fill="#FED918"/>
<path d="M21.9728 7.82026C21.9766 6.7446 21.6082 5.70073 20.9302 4.86564C20.2522 4.03056 19.3063 3.45565 18.2528 3.2384L16.9971 3.13948L14.4994 3.13019L14.4947 4.38593L16.7257 4.39423C17.7881 4.39818 18.8054 4.824 19.5538 5.57801C20.3023 6.33202 20.7205 7.35246 20.7166 8.41484L20.6943 16.6236C20.69 17.6856 20.2642 18.7025 19.5104 19.4507C18.7566 20.1989 17.7365 20.6171 16.6744 20.6134L7.25825 20.5784C6.19604 20.5744 5.17889 20.1488 4.43049 19.395C3.6821 18.6412 3.26374 17.621 3.26742 16.5588L3.28894 8.35005C3.29295 7.28769 3.71879 6.27043 4.47279 5.52202C5.22678 4.7736 6.24719 4.35534 7.30955 4.35922L9.76778 4.36836L9.77245 3.11262L7.05247 3.10251L5.79412 3.19308C4.74156 3.4052 3.79444 3.97406 3.1127 4.80358C2.43096 5.63311 2.05637 6.67249 2.05217 7.7462L2.02831 17.1237C2.026 17.736 2.14433 18.3427 2.37652 18.9092C2.60872 19.4758 2.95025 19.9911 3.3816 20.4256C3.81295 20.8601 4.32568 21.2055 4.8905 21.4418C5.45531 21.6782 6.06116 21.801 6.67345 21.8032L17.2679 21.8426C17.8802 21.845 18.4869 21.7267 19.0535 21.4945C19.62 21.2623 20.1353 20.9208 20.5699 20.4895C21.0044 20.0582 21.3498 19.5455 21.5862 18.9807C21.8226 18.4159 21.9454 17.81 21.9477 17.1977L21.9728 7.82026Z" fill="#FED918"/>
</g>
<defs>
<clipPath id="clip0">
<rect width="20" height="20" fill="white" transform="translate(2 2)"/>
</clipPath>
</defs>
</svg>
