<svg width="24" height="24" viewBox="0 0 24 24" fill="none" xmlns="http://www.w3.org/2000/svg">
<g clip-path="url(#clip0)">
<path d="M15.7175 13.7094C16.6615 13.7122 17.429 12.9493 17.4319 12.0053C17.4347 11.0613 16.6717 10.2937 15.7277 10.2909C14.7838 10.2881 14.0162 11.051 14.0134 11.995C14.0105 12.939 14.7735 13.7066 15.7175 13.7094Z" fill="#FED918"/>
<path d="M20.6713 12.6111L20.6949 6.6334C20.6983 5.4231 20.2215 4.26085 19.3691 3.40167C18.5166 2.54248 17.3582 2.05653 16.1479 2.05043L7.92696 2.018C6.71683 2.01482 5.55484 2.49173 4.69587 3.34414C3.8369 4.19655 3.35109 5.35485 3.34499 6.56497L3.31831 13.3282L3.32231 13.3282L3.30638 17.3666C3.30293 18.5768 3.77959 19.7389 4.63181 20.598C5.48403 21.4572 6.64222 21.9433 7.85234 21.9496L16.0733 21.982C17.2834 21.9852 18.4454 21.5083 19.3044 20.6559C20.1633 19.8035 20.6492 18.6452 20.6552 17.4351L20.6743 12.6101L20.6713 12.6111ZM19.4655 17.4314C19.4612 18.326 19.1022 19.1823 18.4672 19.8125C17.8323 20.4428 16.9733 20.7954 16.0787 20.7931L7.85703 20.7606C6.96238 20.7561 6.10608 20.3968 5.47609 19.7615C4.84611 19.1263 4.49394 18.267 4.49687 17.3723L4.5159 12.5474L4.51215 12.5474L4.53573 6.56966C4.54016 5.80435 4.80456 5.06327 5.28556 4.468C5.76657 3.87272 6.43561 3.4586 7.18292 3.29358C8.53271 3.3489 9.00223 3.21925 10.8786 3.2509L16.1432 3.24117C17.0379 3.24569 17.8942 3.60502 18.5241 4.24027C19.1541 4.87553 19.5063 5.73479 19.5034 6.62945L19.4767 13.3919L19.4807 13.3919L19.4655 17.4314Z" fill="#FED918"/>
</g>
<defs>
<clipPath id="clip0">
<rect width="20" height="20" fill="white" transform="translate(2 2)"/>
</clipPath>
</defs>
</svg>
