<svg width="24" height="24" viewBox="0 0 24 24" fill="none" xmlns="http://www.w3.org/2000/svg">
<path d="M13.75 9.50002L14.5 10.25L6.91666 17.8334H6.16666V17.0834L13.75 9.50002ZM16.75 4.50002C16.5833 4.50002 16.3333 4.58335 16.1667 4.75002L14.6667 6.25002L17.75 9.41669L19.25 7.83335C19.5833 7.50002 19.5833 7.00002 19.25 6.66669L17.3333 4.75002C17.1667 4.58335 16.9167 4.50002 16.75 4.50002ZM13.75 7.16669L4.49999 16.3334V19.5H7.66666L16.8333 10.25L13.75 7.16669V7.16669ZM7.83332 3.66669V6.16669H10.3333V7.83335H7.83332V10.3334H6.16666V7.83335H3.66666V6.16669H6.16666V3.66669H7.83332Z" fill="#BBBBBB"/>
</svg>
