<svg width="24" height="24" viewBox="0 0 24 24" fill="none" xmlns="http://www.w3.org/2000/svg">
<path d="M12 12.4167C12.1105 12.4167 12.2165 12.3728 12.2946 12.2946C12.3728 12.2165 12.4167 12.1105 12.4167 12C12.4167 11.8895 12.3728 11.7835 12.2946 11.7054C12.2165 11.6272 12.1105 11.5833 12 11.5833C11.8895 11.5833 11.7835 11.6272 11.7054 11.7054C11.6272 11.7835 11.5833 11.8895 11.5833 12C11.5833 12.1105 11.6272 12.2165 11.7054 12.2946C11.7835 12.3728 11.8895 12.4167 12 12.4167Z" stroke="#BBBBBB" stroke-width="1.5" stroke-linecap="round" stroke-linejoin="round"/>
<path d="M12 17.4167C12.1105 17.4167 12.2165 17.3728 12.2946 17.2946C12.3728 17.2165 12.4167 17.1105 12.4167 17C12.4167 16.8895 12.3728 16.7835 12.2946 16.7054C12.2165 16.6272 12.1105 16.5833 12 16.5833C11.8895 16.5833 11.7835 16.6272 11.7054 16.7054C11.6272 16.7835 11.5833 16.8895 11.5833 17C11.5833 17.1105 11.6272 17.2165 11.7054 17.2946C11.7835 17.3728 11.8895 17.4167 12 17.4167Z" stroke="#BBBBBB" stroke-width="1.5" stroke-linecap="round" stroke-linejoin="round"/>
<path d="M12 7.41668C12.1105 7.41668 12.2165 7.37278 12.2946 7.29464C12.3728 7.2165 12.4167 7.11052 12.4167 7.00001C12.4167 6.8895 12.3728 6.78352 12.2946 6.70538C12.2165 6.62724 12.1105 6.58334 12 6.58334C11.8895 6.58334 11.7835 6.62724 11.7054 6.70538C11.6272 6.78352 11.5833 6.8895 11.5833 7.00001C11.5833 7.11052 11.6272 7.2165 11.7054 7.29464C11.7835 7.37278 11.8895 7.41668 12 7.41668Z" stroke="#BBBBBB" stroke-width="1.5" stroke-linecap="round" stroke-linejoin="round"/>
</svg>
