<svg width="24" height="24" viewBox="0 0 24 24" fill="none" xmlns="http://www.w3.org/2000/svg">
<g clip-path="url(#clip0)">
<path d="M11.467 2C14.651 2 17.232 4.566 17.232 7.732C17.2323 8.56158 17.0518 9.38126 16.7029 10.1339C16.3541 10.8866 15.8453 11.5541 15.212 12.09C15.482 12.224 15.728 12.358 15.95 12.493C16.428 12.783 16.924 13.143 17.44 13.572C17.5096 13.6298 17.5671 13.7007 17.6091 13.7808C17.6511 13.8609 17.6769 13.9485 17.6849 14.0386C17.6929 14.1287 17.683 14.2194 17.6557 14.3057C17.6284 14.3919 17.5843 14.4719 17.526 14.541C17.4078 14.6813 17.2389 14.769 17.0563 14.7852C16.8736 14.8013 16.6919 14.7444 16.551 14.627C16.1346 14.2748 15.6928 13.9539 15.229 13.667C14.7774 13.4006 14.3079 13.1658 13.824 12.964C13.104 13.286 12.306 13.464 11.467 13.464C10.5717 13.4653 9.68838 13.2582 8.88701 12.859L8.84501 12.879C6.895 13.635 5.472 14.753 4.553 16.237C3.631 17.726 3.254 19.39 3.423 21.251C3.43082 21.3412 3.42078 21.4321 3.39344 21.5185C3.3661 21.6048 3.322 21.6849 3.26367 21.7542C3.20535 21.8235 3.13393 21.8806 3.05351 21.9223C2.97309 21.9639 2.88525 21.9893 2.795 21.997C2.61296 22.0137 2.43174 21.9575 2.29113 21.8406C2.15051 21.7238 2.06199 21.556 2.045 21.374C1.85 19.222 2.294 17.261 3.375 15.516C4.325 13.98 5.722 12.786 7.549 11.934C6.96659 11.4 6.50169 10.7507 6.18388 10.0272C5.86607 9.30381 5.70231 8.52216 5.703 7.732C5.703 4.566 8.28301 2 11.467 2ZM18.868 14.693C19.248 14.693 19.556 15.003 19.556 15.384V17.136H21.308C21.3987 17.1357 21.4886 17.1534 21.5724 17.1879C21.6563 17.2223 21.7326 17.273 21.7969 17.337C21.8611 17.401 21.9121 17.4771 21.947 17.5608C21.9819 17.6445 21.9999 17.7343 22 17.825C21.9992 18.0078 21.9259 18.1829 21.7961 18.3117C21.6664 18.4405 21.4908 18.5125 21.308 18.512H19.556V20.265C19.5563 20.4478 19.484 20.6233 19.355 20.7528C19.226 20.8824 19.0508 20.9555 18.868 20.956C18.6852 20.9555 18.51 20.8824 18.381 20.7528C18.252 20.6233 18.1797 20.4478 18.18 20.265V18.512H16.428C16.2452 18.5125 16.0696 18.4405 15.9399 18.3117C15.8101 18.1829 15.7368 18.0078 15.736 17.825C15.736 17.445 16.046 17.137 16.428 17.137L18.18 17.136V15.384C18.1797 15.2012 18.252 15.0257 18.381 14.8962C18.51 14.7666 18.6852 14.6935 18.868 14.693V14.693ZM11.468 3.376C9.04801 3.376 7.086 5.326 7.086 7.732C7.086 10.138 9.04801 12.089 11.467 12.089C13.887 12.089 15.848 10.139 15.848 7.732C15.848 5.326 13.887 3.376 11.468 3.376V3.376Z" fill="#BBBBBB"/>
</g>
<defs>
<clipPath id="clip0">
<rect width="20" height="20" fill="white" transform="translate(2 2)"/>
</clipPath>
</defs>
</svg>
