<svg width="24" height="24" viewBox="0 0 24 24" fill="none" xmlns="http://www.w3.org/2000/svg">
<g clip-path="url(#clip0)">
<path d="M20.104 14.1297C19.8978 13.9776 19.7307 13.7787 19.6165 13.5494C19.5023 13.3201 19.4442 13.0669 19.447 12.8107C19.434 12.3452 19.4002 11.8897 19.3538 11.4357C19.2506 9.98584 18.7275 8.59735 17.8484 7.43976C16.9693 6.28217 15.7722 5.40558 14.4033 4.91699C15.0093 4.52798 15.5179 4.00505 15.89 3.38849C16.0103 3.23128 16.1073 3.05748 16.1778 2.87249C16.213 2.79384 16.2312 2.70866 16.2313 2.62249C16.2308 2.45733 16.165 2.29907 16.0482 2.18229C15.9314 2.06551 15.7732 1.9997 15.608 1.99924H8.23625C8.15439 1.9992 8.07333 2.0153 7.9977 2.04661C7.92207 2.07792 7.85335 2.12383 7.79547 2.18171C7.73759 2.23959 7.69168 2.30831 7.66037 2.38394C7.62907 2.45957 7.61297 2.54063 7.613 2.62249C7.613 2.63549 7.619 2.64749 7.62 2.65924L7.614 2.66424C7.5595 2.92824 7.90975 3.38174 7.90975 3.38174C8.28766 4.02136 8.81302 4.56137 9.442 4.95674C6.63125 5.98599 4.5145 8.63874 4.5145 11.755C4.5145 11.9405 4.5285 12.1232 4.54225 12.305C4.52925 12.445 4.5125 12.584 4.5025 12.7247C4.50605 13.0188 4.43897 13.3095 4.3069 13.5723C4.17483 13.8351 3.98162 14.0623 3.7435 14.235C3.688 14.2777 3.62925 14.3172 3.57575 14.362C3.54 14.387 3.50925 14.4135 3.4725 14.4395L3.4825 14.4475C3.02277 14.8456 2.65519 15.3389 2.40527 15.8933C2.15536 16.4477 2.02909 17.0499 2.03525 17.658C2.03525 20.2472 4.13525 22 6.7235 22H17.2765C19.8658 22 21.965 20.2472 21.965 17.658C21.9719 16.9617 21.8054 16.2746 21.4805 15.6586C21.1556 15.0427 20.6826 14.5173 20.104 14.1297ZM9.2435 3.24649H14.5435C14.2188 3.63369 13.8134 3.94518 13.3556 4.15913C12.8978 4.37308 12.3988 4.48429 11.8935 4.48499C11.3882 4.48438 10.8891 4.3732 10.4313 4.15925C9.97354 3.94529 9.56811 3.63375 9.2435 3.24649ZM17.1485 20.7732H6.7335C4.822 20.7732 3.27175 19.5695 3.27175 17.658C3.26635 17.1972 3.36754 16.7414 3.56742 16.3261C3.7673 15.9109 4.06046 15.5475 4.424 15.2642L4.432 15.2702C4.67725 15.0877 4.86175 14.7592 5.089 14.5607C5.28574 14.4027 5.44634 14.2044 5.56002 13.9791C5.67369 13.7539 5.73779 13.5069 5.748 13.2547C5.72134 12.7742 5.73657 12.2923 5.7935 11.8145C5.79202 10.2136 6.41422 8.67501 7.52814 7.52516C8.64206 6.3753 10.1601 5.70458 11.7603 5.65524C11.806 5.65724 11.8485 5.66424 11.8932 5.66424C11.9682 5.66424 12.0412 5.65324 12.1155 5.64924C13.7404 5.67572 15.2894 6.34129 16.427 7.50176C17.5647 8.66223 18.1993 10.2242 18.1935 11.8492C18.2294 12.3305 18.2231 12.814 18.1748 13.2942C18.1736 13.5468 18.2269 13.7966 18.3308 14.0267C18.4348 14.2568 18.587 14.4619 18.7773 14.628C18.9773 14.8185 19.206 15.0052 19.4463 15.203V15.209C19.8405 15.484 20.1621 15.8504 20.3837 16.2769C20.6053 16.7035 20.7202 17.1773 20.7185 17.658C20.7185 19.5695 19.0608 20.7732 17.1485 20.7732Z" fill="#FED918"/>
</g>
<defs>
<clipPath id="clip0">
<rect width="20" height="20" fill="white" transform="translate(2 2)"/>
</clipPath>
</defs>
</svg>
