<svg width="24" height="24" viewBox="0 0 24 24" fill="none" xmlns="http://www.w3.org/2000/svg">
<path d="M21.8473 12.4623L21.7534 6.53459C21.7331 5.33427 21.1691 4.18964 20.1849 3.35184C19.2008 2.51404 17.8769 2.0515 16.5039 2.06571L7.17774 2.17257C5.80473 2.18983 4.49603 2.68254 3.53879 3.54258C2.58154 4.40263 2.05394 5.55977 2.07175 6.76011L2.17802 13.4666L2.1826 13.4666L2.24607 17.4716C2.2663 18.672 2.83037 19.8166 3.81452 20.6544C4.79866 21.4922 6.1225 21.9547 7.49556 21.9405L16.8223 21.8336C18.1953 21.8164 19.504 21.3237 20.4612 20.4636C21.4185 19.6036 21.9461 18.4465 21.9282 17.2461L21.8524 12.4622L21.8473 12.4623ZM9.20445 3.36068L9.29314 8.95814C9.2959 9.13228 9.21942 9.30019 9.08052 9.42494C8.94162 9.54969 8.75168 9.62105 8.55248 9.62334C8.35329 9.62562 8.16116 9.55863 8.01835 9.43711C7.87555 9.31559 7.79377 9.14949 7.79101 8.97535L7.70232 3.37789L9.20445 3.36068ZM20.5766 17.2616C20.5896 18.1486 20.1996 19.0035 19.4923 19.6391C18.785 20.2746 17.8181 20.6388 16.8035 20.6518L7.47655 20.7587C6.4618 20.7692 5.4834 20.4275 4.75604 19.8083C4.02868 19.1892 3.61177 18.3432 3.59681 17.4562L3.521 12.672L3.51642 12.6721L3.42249 6.74463C3.41171 5.98557 3.6964 5.24603 4.22984 4.64739C4.76328 4.04875 5.51379 3.62655 6.3582 3.45009L6.446 8.99076C6.4537 9.47679 6.68194 9.94037 7.0805 10.2795C7.47906 10.6187 8.01531 10.8057 8.57126 10.7993C9.12721 10.7929 9.65734 10.5937 10.045 10.2456C10.4327 9.89739 10.6461 9.42875 10.6384 8.94273L10.5493 3.31499L16.5226 3.24655C17.5376 3.23591 18.5162 3.5778 19.2437 4.19717C19.9711 4.81654 20.388 5.66276 20.4026 6.55006L20.5089 13.2566L20.5135 13.2565L20.5766 17.2616Z" fill="#FF5722"/>
</svg>
