<svg width="24" height="24" viewBox="0 0 24 24" fill="none" xmlns="http://www.w3.org/2000/svg">
<path d="M17 9.00001C17 7.58584 16.4733 6.22917 15.5358 5.22917C14.5975 4.22917 13.325 3.66667 12 3.66667C10.6742 3.66667 9.4025 4.22834 8.46417 5.22917C7.52667 6.22917 7 7.58584 7 9.00001C7 15.2225 4.5 17 4.5 17H19.5C19.5 17 17 15.2225 17 9.00001Z" stroke="#BBBBBB" stroke-width="1.5" stroke-linecap="round" stroke-linejoin="round"/>
<path d="M13.4417 19.5C13.2953 19.7528 13.0851 19.9626 12.8321 20.1085C12.579 20.2544 12.2921 20.3312 12 20.3312C11.7079 20.3312 11.421 20.2544 11.1679 20.1085C10.9149 19.9626 10.7047 19.7528 10.5583 19.5" stroke="#BBBBBB" stroke-width="1.5" stroke-linecap="round" stroke-linejoin="round"/>
</svg>
