<svg width="24" height="24" viewBox="0 0 24 24" fill="none" xmlns="http://www.w3.org/2000/svg">
<path d="M15.5487 4.16014C15.8418 4.16175 16.1294 4.24055 16.3823 4.38862C16.6353 4.53669 16.8448 4.7488 16.9897 5.00358L20.5052 11.2072C20.6477 11.4595 20.722 11.7445 20.7208 12.0342C20.7197 12.3239 20.6431 12.6083 20.4987 12.8595L16.9343 19.0345C16.7876 19.2881 16.5766 19.4986 16.3225 19.6446C16.0684 19.7907 15.7803 19.8671 15.4873 19.8663L8.45235 19.8385C8.15928 19.8372 7.87176 19.7585 7.61884 19.6105C7.36592 19.4624 7.15656 19.2502 7.01191 18.9953L3.49585 12.7924C3.35342 12.5401 3.27913 12.2551 3.28027 11.9654C3.28141 11.6757 3.35796 11.3913 3.50237 11.1402L7.06725 4.96444C7.21407 4.71084 7.42513 4.50043 7.67917 4.35439C7.93322 4.20836 8.22127 4.13187 8.5143 4.13264L15.5487 4.16039L15.5487 4.16014ZM15.5536 2.91915L8.51919 2.8914C8.00733 2.88928 7.504 3.02252 7.06022 3.27761C6.61644 3.53269 6.24798 3.90057 5.99219 4.34394L2.42606 10.5197C2.1732 10.9579 2.03914 11.4545 2.03714 11.9604C2.03514 12.4663 2.16528 12.964 2.41468 13.4042L5.93198 19.6083C6.18442 20.0536 6.55002 20.4244 6.99179 20.683C7.43355 20.9416 7.9358 21.0789 8.44769 21.081L15.4819 21.1088C15.9938 21.1107 16.4971 20.9774 16.9409 20.7222C17.3847 20.4671 17.7532 20.0993 18.0091 19.656L21.574 13.48C21.8269 13.0418 21.9609 12.5452 21.9629 12.0392C21.9649 11.5333 21.8348 11.0357 21.5854 10.5955L18.0694 4.39158C17.8171 3.94612 17.4515 3.57528 17.0097 3.31665C16.5679 3.05802 16.0656 2.9208 15.5536 2.9189L15.5536 2.91915Z" fill="#FED918"/>
</svg>
