<svg width="24" height="24" viewBox="0 0 24 24" fill="none" xmlns="http://www.w3.org/2000/svg">
<path fill-rule="evenodd" clip-rule="evenodd" d="M6.28571 4.38098H17.7143C18.2195 4.38098 18.7039 4.58166 19.0612 4.93887C19.4184 5.29609 19.619 5.78057 19.619 6.28574V17.7143C19.619 18.2195 19.4184 18.704 19.0612 19.0612C18.7039 19.4184 18.2195 19.6191 17.7143 19.6191H6.28571C5.78054 19.6191 5.29605 19.4184 4.93884 19.0612C4.58163 18.704 4.38095 18.2195 4.38095 17.7143V6.28574C4.38095 5.78057 4.58163 5.29609 4.93884 4.93887C5.29605 4.58166 5.78054 4.38098 6.28571 4.38098V4.38098Z" stroke="#BBBBBB" stroke-linecap="round" stroke-linejoin="round"/>
<path d="M4.38095 8.19049H19.619" stroke="#BBBBBB" stroke-linecap="round" stroke-linejoin="round"/>
<path d="M12 11.0477V16.8153" stroke="#BBBBBB" stroke-linecap="round" stroke-linejoin="round"/>
<path d="M14.8571 13.9048H9.14285" stroke="#BBBBBB" stroke-linecap="round" stroke-linejoin="round"/>
</svg>
